<svg xmlns="http://www.w3.org/2000/svg" width="860" height="560" viewBox="0 0 860 560">
<style>
  .mono{font-family:'JetBrains Mono','Courier New',monospace}
  .globe{font:9px 'Courier New',monospace;fill:#f5c518;text-anchor:middle;white-space:pre;letter-spacing:1px}
  .crumb{font:13px 'Courier New',monospace;fill:#6f6d68}
  .crumb .hi{fill:#e8e6e1}
  .name{font:600 30px 'Courier New',monospace;fill:#e8e6e1;letter-spacing:-1px}
  .role{font:13px 'Courier New',monospace;fill:#6f6d68}
  .tag{font:13px 'Courier New',monospace;fill:#8a7010}
  .cur{fill:#f5c518}
  @keyframes blink{50%{opacity:0}}
  .cur{animation:blink 1s steps(1) infinite}
</style>
<rect width="860" height="560" fill="#070707"/>
<!-- scanlines -->
<g opacity="0.35"><rect y="0" width="860" height="1" fill="#000"/><rect y="3" width="860" height="1" fill="#000"/><rect y="6" width="860" height="1" fill="#000"/><rect y="9" width="860" height="1" fill="#000"/><rect y="12" width="860" height="1" fill="#000"/><rect y="15" width="860" height="1" fill="#000"/><rect y="18" width="860" height="1" fill="#000"/><rect y="21" width="860" height="1" fill="#000"/><rect y="24" width="860" height="1" fill="#000"/><rect y="27" width="860" height="1" fill="#000"/><rect y="30" width="860" height="1" fill="#000"/><rect y="33" width="860" height="1" fill="#000"/><rect y="36" width="860" height="1" fill="#000"/><rect y="39" width="860" height="1" fill="#000"/><rect y="42" width="860" height="1" fill="#000"/><rect y="45" width="860" height="1" fill="#000"/><rect y="48" width="860" height="1" fill="#000"/><rect y="51" width="860" height="1" fill="#000"/><rect y="54" width="860" height="1" fill="#000"/><rect y="57" width="860" height="1" fill="#000"/><rect y="60" width="860" height="1" fill="#000"/><rect y="63" width="860" height="1" fill="#000"/><rect y="66" width="860" height="1" fill="#000"/><rect y="69" width="860" height="1" fill="#000"/><rect y="72" width="860" height="1" fill="#000"/><rect y="75" width="860" height="1" fill="#000"/><rect y="78" width="860" height="1" fill="#000"/><rect y="81" width="860" height="1" fill="#000"/><rect y="84" width="860" height="1" fill="#000"/><rect y="87" width="860" height="1" fill="#000"/><rect y="90" width="860" height="1" fill="#000"/><rect y="93" width="860" height="1" fill="#000"/><rect y="96" width="860" height="1" fill="#000"/><rect y="99" width="860" height="1" fill="#000"/><rect y="102" width="860" height="1" fill="#000"/><rect y="105" width="860" height="1" fill="#000"/><rect y="108" width="860" height="1" fill="#000"/><rect y="111" width="860" height="1" fill="#000"/><rect y="114" width="860" height="1" fill="#000"/><rect y="117" width="860" height="1" fill="#000"/><rect y="120" width="860" height="1" fill="#000"/><rect y="123" width="860" height="1" fill="#000"/><rect y="126" width="860" height="1" fill="#000"/><rect y="129" width="860" height="1" fill="#000"/><rect y="132" width="860" height="1" fill="#000"/><rect y="135" width="860" height="1" fill="#000"/><rect y="138" width="860" height="1" fill="#000"/><rect y="141" width="860" height="1" fill="#000"/><rect y="144" width="860" height="1" fill="#000"/><rect y="147" width="860" height="1" fill="#000"/><rect y="150" width="860" height="1" fill="#000"/><rect y="153" width="860" height="1" fill="#000"/><rect y="156" width="860" height="1" fill="#000"/><rect y="159" width="860" height="1" fill="#000"/><rect y="162" width="860" height="1" fill="#000"/><rect y="165" width="860" height="1" fill="#000"/><rect y="168" width="860" height="1" fill="#000"/><rect y="171" width="860" height="1" fill="#000"/><rect y="174" width="860" height="1" fill="#000"/><rect y="177" width="860" height="1" fill="#000"/><rect y="180" width="860" height="1" fill="#000"/><rect y="183" width="860" height="1" fill="#000"/><rect y="186" width="860" height="1" fill="#000"/><rect y="189" width="860" height="1" fill="#000"/><rect y="192" width="860" height="1" fill="#000"/><rect y="195" width="860" height="1" fill="#000"/><rect y="198" width="860" height="1" fill="#000"/><rect y="201" width="860" height="1" fill="#000"/><rect y="204" width="860" height="1" fill="#000"/><rect y="207" width="860" height="1" fill="#000"/><rect y="210" width="860" height="1" fill="#000"/><rect y="213" width="860" height="1" fill="#000"/><rect y="216" width="860" height="1" fill="#000"/><rect y="219" width="860" height="1" fill="#000"/><rect y="222" width="860" height="1" fill="#000"/><rect y="225" width="860" height="1" fill="#000"/><rect y="228" width="860" height="1" fill="#000"/><rect y="231" width="860" height="1" fill="#000"/><rect y="234" width="860" height="1" fill="#000"/><rect y="237" width="860" height="1" fill="#000"/><rect y="240" width="860" height="1" fill="#000"/><rect y="243" width="860" height="1" fill="#000"/><rect y="246" width="860" height="1" fill="#000"/><rect y="249" width="860" height="1" fill="#000"/><rect y="252" width="860" height="1" fill="#000"/><rect y="255" width="860" height="1" fill="#000"/><rect y="258" width="860" height="1" fill="#000"/><rect y="261" width="860" height="1" fill="#000"/><rect y="264" width="860" height="1" fill="#000"/><rect y="267" width="860" height="1" fill="#000"/><rect y="270" width="860" height="1" fill="#000"/><rect y="273" width="860" height="1" fill="#000"/><rect y="276" width="860" height="1" fill="#000"/><rect y="279" width="860" height="1" fill="#000"/><rect y="282" width="860" height="1" fill="#000"/><rect y="285" width="860" height="1" fill="#000"/><rect y="288" width="860" height="1" fill="#000"/><rect y="291" width="860" height="1" fill="#000"/><rect y="294" width="860" height="1" fill="#000"/><rect y="297" width="860" height="1" fill="#000"/><rect y="300" width="860" height="1" fill="#000"/><rect y="303" width="860" height="1" fill="#000"/><rect y="306" width="860" height="1" fill="#000"/><rect y="309" width="860" height="1" fill="#000"/><rect y="312" width="860" height="1" fill="#000"/><rect y="315" width="860" height="1" fill="#000"/><rect y="318" width="860" height="1" fill="#000"/><rect y="321" width="860" height="1" fill="#000"/><rect y="324" width="860" height="1" fill="#000"/><rect y="327" width="860" height="1" fill="#000"/><rect y="330" width="860" height="1" fill="#000"/><rect y="333" width="860" height="1" fill="#000"/><rect y="336" width="860" height="1" fill="#000"/><rect y="339" width="860" height="1" fill="#000"/><rect y="342" width="860" height="1" fill="#000"/><rect y="345" width="860" height="1" fill="#000"/><rect y="348" width="860" height="1" fill="#000"/><rect y="351" width="860" height="1" fill="#000"/><rect y="354" width="860" height="1" fill="#000"/><rect y="357" width="860" height="1" fill="#000"/><rect y="360" width="860" height="1" fill="#000"/><rect y="363" width="860" height="1" fill="#000"/><rect y="366" width="860" height="1" fill="#000"/><rect y="369" width="860" height="1" fill="#000"/><rect y="372" width="860" height="1" fill="#000"/><rect y="375" width="860" height="1" fill="#000"/><rect y="378" width="860" height="1" fill="#000"/><rect y="381" width="860" height="1" fill="#000"/><rect y="384" width="860" height="1" fill="#000"/><rect y="387" width="860" height="1" fill="#000"/><rect y="390" width="860" height="1" fill="#000"/><rect y="393" width="860" height="1" fill="#000"/><rect y="396" width="860" height="1" fill="#000"/><rect y="399" width="860" height="1" fill="#000"/><rect y="402" width="860" height="1" fill="#000"/><rect y="405" width="860" height="1" fill="#000"/><rect y="408" width="860" height="1" fill="#000"/><rect y="411" width="860" height="1" fill="#000"/><rect y="414" width="860" height="1" fill="#000"/><rect y="417" width="860" height="1" fill="#000"/><rect y="420" width="860" height="1" fill="#000"/><rect y="423" width="860" height="1" fill="#000"/><rect y="426" width="860" height="1" fill="#000"/><rect y="429" width="860" height="1" fill="#000"/><rect y="432" width="860" height="1" fill="#000"/><rect y="435" width="860" height="1" fill="#000"/><rect y="438" width="860" height="1" fill="#000"/><rect y="441" width="860" height="1" fill="#000"/><rect y="444" width="860" height="1" fill="#000"/><rect y="447" width="860" height="1" fill="#000"/><rect y="450" width="860" height="1" fill="#000"/><rect y="453" width="860" height="1" fill="#000"/><rect y="456" width="860" height="1" fill="#000"/><rect y="459" width="860" height="1" fill="#000"/><rect y="462" width="860" height="1" fill="#000"/><rect y="465" width="860" height="1" fill="#000"/><rect y="468" width="860" height="1" fill="#000"/><rect y="471" width="860" height="1" fill="#000"/><rect y="474" width="860" height="1" fill="#000"/><rect y="477" width="860" height="1" fill="#000"/><rect y="480" width="860" height="1" fill="#000"/><rect y="483" width="860" height="1" fill="#000"/><rect y="486" width="860" height="1" fill="#000"/><rect y="489" width="860" height="1" fill="#000"/><rect y="492" width="860" height="1" fill="#000"/><rect y="495" width="860" height="1" fill="#000"/><rect y="498" width="860" height="1" fill="#000"/><rect y="501" width="860" height="1" fill="#000"/><rect y="504" width="860" height="1" fill="#000"/><rect y="507" width="860" height="1" fill="#000"/><rect y="510" width="860" height="1" fill="#000"/><rect y="513" width="860" height="1" fill="#000"/><rect y="516" width="860" height="1" fill="#000"/><rect y="519" width="860" height="1" fill="#000"/><rect y="522" width="860" height="1" fill="#000"/><rect y="525" width="860" height="1" fill="#000"/><rect y="528" width="860" height="1" fill="#000"/><rect y="531" width="860" height="1" fill="#000"/><rect y="534" width="860" height="1" fill="#000"/><rect y="537" width="860" height="1" fill="#000"/><rect y="540" width="860" height="1" fill="#000"/><rect y="543" width="860" height="1" fill="#000"/><rect y="546" width="860" height="1" fill="#000"/><rect y="549" width="860" height="1" fill="#000"/><rect y="552" width="860" height="1" fill="#000"/><rect y="555" width="860" height="1" fill="#000"/><rect y="558" width="860" height="1" fill="#000"/></g>
<text class="crumb" x="28" y="34">I <tspan fill="#333230">&gt;</tspan> <tspan class="hi">am</tspan> <tspan fill="#333230">&gt;</tspan> Pierre — YoungCEO</text>
<text class="globe" y="118" opacity="0"><tspan x="430" dy="0">                                                    </tspan><tspan x="430" dy="11">                          ·                         </tspan><tspan x="430" dy="11">                 %%%%%%%·······#***+                </tspan><tspan x="430" dy="11">             %%@@@@@@@@@@······####**++=            </tspan><tspan x="430" dy="11">          %@@@@@@@·@@@@@·····%%%####***++=-         </tspan><tspan x="430" dy="11">        %@@@@@@@··@@@@·······%%%%####***++==-       </tspan><tspan x="430" dy="11">      %%@@@@@@@@·········@·····%%####***+++==-:     </tspan><tspan x="430" dy="11">     %%@@@@@@···········@@@%%%%%#####***+++==--:    </tspan><tspan x="430" dy="11">    ·%@@@················@%%%%%%##·#****+++==--::   </tspan><tspan x="430" dy="11">   ····················@@%%%%%%###··***++++==- :::  </tspan><tspan x="430" dy="11">  ·······················%%%%%##··#****+++===-- ::: </tspan><tspan x="430" dy="11">  ···················%%%%%%%######****+++===---   : </tspan><tspan x="430" dy="11">  ···················%%%%%######*****+++===-        </tspan><tspan x="430" dy="11"> +##··············%%%%%#######*****++++===---       </tspan><tspan x="430" dy="11">  *#··············%#########*****+++++===---:::     </tspan><tspan x="430" dy="11">  +**#············#######******+++++====---:::      </tspan><tspan x="430" dy="11">  ++**··············#********+++++====---::::       </tspan><tspan x="430" dy="11">   =++················***++++++=====----::::        </tspan><tspan x="430" dy="11">    =+················++++++======----::::::        </tspan><tspan x="430" dy="11">     =··················======-----:::::::  :       </tspan><tspan x="430" dy="11">        ················==------::::::::   :        </tspan><tspan x="430" dy="11">               ···      ----::::::::::              </tspan><tspan x="430" dy="11">                         :::::::::::                </tspan><tspan x="430" dy="11">                          :::                       </tspan><tspan x="430" dy="11">                                                    </tspan><tspan x="430" dy="11">                                                    </tspan>
<animate attributeName="opacity" values="1;0;0;0;0;0;0;0;1" dur="4.4s" repeatCount="indefinite" calcMode="discrete"/></text>
<text class="globe" y="118" opacity="0"><tspan x="430" dy="0">                                                    </tspan><tspan x="430" dy="11">                          *                         </tspan><tspan x="430" dy="11">                 %···············**+                </tspan><tspan x="430" dy="11">             %%@@@@@@@@@@%%%%·····#**++=            </tspan><tspan x="430" dy="11">          %·@@@@@@@@@@@@@@@%%%%·····***++=-         </tspan><tspan x="430" dy="11">        %@@@@@@@@@@@@@@@@·@%%%·········*++==-       </tspan><tspan x="430" dy="11">      %%@@@@@@@@@@@@@@@@@··········##***+++·=-:     </tspan><tspan x="430" dy="11">     %%@@@@@@@@@@@@@@@@@@@···········***+++=·--:    </tspan><tspan x="430" dy="11">    %%@@@@@@@@@@@@@@@@@@@············***+++=·--::   </tspan><tspan x="430" dy="11">   #%%@@@@@@@@@@@@@@@@@················++++==--:::  </tspan><tspan x="430" dy="11">  ·%%%@···@@@@@@@@@@@················**+++===--:::: </tspan><tspan x="430" dy="11">  ·%%%······@@····@··················*+++===---:::: </tspan><tspan x="430" dy="11">  ··%%%%····························*+++===---::::: </tspan><tspan x="430" dy="11"> ···#%%%%···························+++===---:::::: </tspan><tspan x="430" dy="11">  ····##%····························+===---::::::: </tspan><tspan x="430" dy="11">  ····##########·······················=---:::::::: </tspan><tspan x="430" dy="11">  ···***##########····················   :::::::::: </tspan><tspan x="430" dy="11">   ··+****************··············     :::::::::  </tspan><tspan x="430" dy="11">    ··++++**********++············        :::::::   </tspan><tspan x="430" dy="11">     ·==++++++++++++++········            ::::::    </tspan><tspan x="430" dy="11">       -==========········                :::::     </tspan><tspan x="430" dy="11">        :------===-                      ::::       </tspan><tspan x="430" dy="11">          :::::-                                    </tspan><tspan x="430" dy="11">             ::                                     </tspan><tspan x="430" dy="11">                                                    </tspan><tspan x="430" dy="11">                                                    </tspan>
<animate attributeName="opacity" values="0;1;0;0;0;0;0;0;0" dur="4.4s" repeatCount="indefinite" calcMode="discrete"/></text>
<text class="globe" y="118" opacity="0"><tspan x="430" dy="0">                                                    </tspan><tspan x="430" dy="11">                          *                         </tspan><tspan x="430" dy="11">                 %················*+                </tspan><tspan x="430" dy="11">             %%··@······@%%%%%%####·····            </tspan><tspan x="430" dy="11">          ···@@@@@@@@@@@@@@%%%%%·###*···+=-         </tspan><tspan x="430" dy="11">        ······@···@@@@@@@@@%%%%%%··········=-       </tspan><tspan x="430" dy="11">      ······@···@@@@@@@@@@@%%%%%%####········-:     </tspan><tspan x="430" dy="11">     ······@@@@@@@@@@@@@@@@%%%%%#####········  :    </tspan><tspan x="430" dy="11">    ·····@@@@@@@@@@@@@@@@@%%%%%%####*········  ::   </tspan><tspan x="430" dy="11">   ······@@@@@@@@@@@@@@@@%%%%%%#####·········   ::  </tspan><tspan x="430" dy="11">  ········@@@@@@@@@@@@@%%%%%%%#####··········   ::: </tspan><tspan x="430" dy="11">  ········@@@@@@@@@@%%%%%%%%######*·········     :: </tspan><tspan x="430" dy="11">  ········%%%%%%%%%%%·······##·············      :: </tspan><tspan x="430" dy="11"> ··············%%%%%······················         :</tspan><tspan x="430" dy="11">  ··············%%%#####·················           </tspan><tspan x="430" dy="11">  ··············#########*··············            </tspan><tspan x="430" dy="11">  ····················*******+++++===·---           </tspan><tspan x="430" dy="11">   ···················***++++++=====----:           </tspan><tspan x="430" dy="11">    ················++++++++======----:::           </tspan><tspan x="430" dy="11">     ···············++++======-----::::             </tspan><tspan x="430" dy="11">        ············======------:::::               </tspan><tspan x="430" dy="11">               ···  --------::::::::                </tspan><tspan x="430" dy="11">                     :::::::::::::                  </tspan><tspan x="430" dy="11">                     :::::::::                      </tspan><tspan x="430" dy="11">                      ::::::                        </tspan><tspan x="430" dy="11">                                                    </tspan>
<animate attributeName="opacity" values="0;0;1;0;0;0;0;0;0" dur="4.4s" repeatCount="indefinite" calcMode="discrete"/></text>
<text class="globe" y="118" opacity="0"><tspan x="430" dy="0">                                                    </tspan><tspan x="430" dy="11">                          *                         </tspan><tspan x="430" dy="11">                 %%%·········###***+                </tspan><tspan x="430" dy="11">             %%@@@@·········%%%####*··+·            </tspan><tspan x="430" dy="11">          %@@@@@@@···@@@···%%%%%####***+··          </tspan><tspan x="430" dy="11">        %@@@@@@@···@@@@@@@@%%%%%%####***++=·        </tspan><tspan x="430" dy="11">      %%@@@@·@@····@@@@@··@%%%%%%####***+++==       </tspan><tspan x="430" dy="11">     ·%·@·················@%%%%%#####***+++==       </tspan><tspan x="430" dy="11">    ··················@@@@%%%%%%####****+++==-      </tspan><tspan x="430" dy="11">   ···················@@@%%%%%%#####***++++==-      </tspan><tspan x="430" dy="11">  ···················@@%%%%%%%#####****+++===       </tspan><tspan x="430" dy="11">  ·····················%%%%%######***·······        </tspan><tspan x="430" dy="11">  ·······················%######*****+·····         </tspan><tspan x="430" dy="11"> +························####*****++++===       :  </tspan><tspan x="430" dy="11">  ·······························+++++===--- :::::: </tspan><tspan x="430" dy="11">  +································+=··· --:::::::: </tspan><tspan x="430" dy="11">  ····································   :::::::::  </tspan><tspan x="430" dy="11">   ·································   -::::::::::  </tspan><tspan x="430" dy="11">    ······························     ::::::::::   </tspan><tspan x="430" dy="11">     ·························         :::::::::    </tspan><tspan x="430" dy="11">        ··················            ::::::::      </tspan><tspan x="430" dy="11">               ···                    :::::::       </tspan><tspan x="430" dy="11">                                     :::::          </tspan><tspan x="430" dy="11">                                    ::::            </tspan><tspan x="430" dy="11">                                   :                </tspan><tspan x="430" dy="11">                                                    </tspan>
<animate attributeName="opacity" values="0;0;0;1;0;0;0;0;0" dur="4.4s" repeatCount="indefinite" calcMode="discrete"/></text>
<text class="globe" y="118" opacity="0"><tspan x="430" dy="0">                                                    </tspan><tspan x="430" dy="11">                          ·                         </tspan><tspan x="430" dy="11">                 %%%%%·······###***+                </tspan><tspan x="430" dy="11">             %%@@@@@@@··········###**++=            </tspan><tspan x="430" dy="11">          %@@@@@@@@@@@@@·····%%%####***++=-         </tspan><tspan x="430" dy="11">        %@@@@@@@@@@@@@@@@@·%%%%%%####***++==-       </tspan><tspan x="430" dy="11">      %%@@@@@@@@@@@@@@@@@····%%%%#···***+++==-:     </tspan><tspan x="430" dy="11">     %%@@@@@@@@@@@@@@@@@@··········##***+++==--:    </tspan><tspan x="430" dy="11">    %%@@@@@@@@@@@@@@@@·············#****+++==--:    </tspan><tspan x="430" dy="11">   #%%@@@@@@@@@·····················***++++==--:    </tspan><tspan x="430" dy="11">  ·%%%@@@@@····························+++===--::   </tspan><tspan x="430" dy="11">  #%%%%%··@······························===---:::: </tspan><tspan x="430" dy="11">  ##%%%····································-   :::: </tspan><tspan x="430" dy="11"> ·###%%%··································         :</tspan><tspan x="430" dy="11">  *#####·································           </tspan><tspan x="430" dy="11">  +**####·······························            </tspan><tspan x="430" dy="11">  ·+****####··························            : </tspan><tspan x="430" dy="11">   ·++**********····················                </tspan><tspan x="430" dy="11">    =+++++******··················                  </tspan><tspan x="430" dy="11">     ===+++++·················                      </tspan><tspan x="430" dy="11">      --========··········                          </tspan><tspan x="430" dy="11">        :------==·                                  </tspan><tspan x="430" dy="11">          :::::-                                    </tspan><tspan x="430" dy="11">                    :                               </tspan><tspan x="430" dy="11">                                                    </tspan><tspan x="430" dy="11">                                                    </tspan>
<animate attributeName="opacity" values="0;0;0;0;1;0;0;0;0" dur="4.4s" repeatCount="indefinite" calcMode="discrete"/></text>
<text class="globe" y="118" opacity="0"><tspan x="430" dy="0">                                                    </tspan><tspan x="430" dy="11">                          *                         </tspan><tspan x="430" dy="11">                 %%%·············**+                </tspan><tspan x="430" dy="11">             %%@@@@@@@@@···········**++=            </tspan><tspan x="430" dy="11">          %@@@@@@@@@@@@@@@@%%%%····#***+·=-         </tspan><tspan x="430" dy="11">        %@@@@@@@@@@@@@@@@@@%%%%%%#····*···==-       </tspan><tspan x="430" dy="11">      %%@@@@@@@@@@@@@@@@@@@%%%%%%###········=-:     </tspan><tspan x="430" dy="11">     %%@@@@@@@@@@@@@@@@@@@@%%%%%###··········--:    </tspan><tspan x="430" dy="11">    %%@@@@@@@@@@@@@@@@@@@@%%%%%%##···········   :   </tspan><tspan x="430" dy="11">   #%%·@@@@@@@@@@@@@@@@@@%%%%%%##············       </tspan><tspan x="430" dy="11">  ·%··@@@@@@@@@@@@@@@@@%%%%%%%···············       </tspan><tspan x="430" dy="11">  ···%%%@@@@@@@@@@@@%%%%%%··················        </tspan><tspan x="430" dy="11">  ····%%%%%%%%%%%%%%%%%%%%·················         </tspan><tspan x="430" dy="11"> ······%···%%%%%%%%%%%····················          </tspan><tspan x="430" dy="11">  ·········%%%%%%%%###···················           </tspan><tspan x="430" dy="11">  ·········#############················            </tspan><tspan x="430" dy="11">  ··········#########*****············              </tspan><tspan x="430" dy="11">   ·········*************++++++·····                </tspan><tspan x="430" dy="11">    ············****++++++++======-                 </tspan><tspan x="430" dy="11">     ···········++++++++======-----                 </tspan><tspan x="430" dy="11">        ·······===========-----  ::                 </tspan><tspan x="430" dy="11">             --===----------::::::                  </tspan><tspan x="430" dy="11">                 ----:::::::::::::                  </tspan><tspan x="430" dy="11">                     :::::::::     :                </tspan><tspan x="430" dy="11">                                                    </tspan><tspan x="430" dy="11">                                                    </tspan>
<animate attributeName="opacity" values="0;0;0;0;0;1;0;0;0" dur="4.4s" repeatCount="indefinite" calcMode="discrete"/></text>
<text class="globe" y="118" opacity="0"><tspan x="430" dy="0">                                                    </tspan><tspan x="430" dy="11">                          *                         </tspan><tspan x="430" dy="11">                 %%%···············+                </tspan><tspan x="430" dy="11">             ······@@@···%%%···###····+=            </tspan><tspan x="430" dy="11">          ·@···@@@@@@@@@@@@%%%%%####***+··          </tspan><tspan x="430" dy="11">        %@@@@@@@@@@@@@@@@@@%%%%%%####***++··        </tspan><tspan x="430" dy="11">      ·%@@@@@@@@@@@@@@@@@@@%%%%%%####***+++··       </tspan><tspan x="430" dy="11">     %%@@@·@@@@@@@@@@@@@@@@%%%%%#####***+++··       </tspan><tspan x="430" dy="11">    %%@@·@@@@@@@@@@@@@@@@@%%%%%%####****++···       </tspan><tspan x="430" dy="11">   #%%@@@@@@@@@@@@@@@@@@@%%%%%%#####***+++···       </tspan><tspan x="430" dy="11">  #%%%@@@@@@@@@@@@@@@@@%%%%%%%#####****+++···       </tspan><tspan x="430" dy="11">  #%%%%%@@@@@@@@@·@@%%%%%%%%######****+++=··        </tspan><tspan x="430" dy="11">  ##%%%%%%%%%%%····%%%%%%%######*****+++···         </tspan><tspan x="430" dy="11"> +###%%%%·········%%%%%#######*****++++=··          </tspan><tspan x="430" dy="11">  *#####%%%·········######···****+++++===-          </tspan><tspan x="430" dy="11">  +**#######··········##·····**+++++====---: ::     </tspan><tspan x="430" dy="11">  ++****##···················+++++====---::::::::   </tspan><tspan x="430" dy="11">   =++***······················=====----::::::::    </tspan><tspan x="430" dy="11">    =+++·······················===----::::::::      </tspan><tspan x="430" dy="11">     ==··+····················     ::::::::::::     </tspan><tspan x="430" dy="11">      - ··=···············       :::::::::::::      </tspan><tspan x="430" dy="11">               ···             ::::::::::::::       </tspan><tspan x="430" dy="11">                              ::::::::::::          </tspan><tspan x="430" dy="11">                                    :               </tspan><tspan x="430" dy="11">                                                    </tspan><tspan x="430" dy="11">                                                    </tspan>
<animate attributeName="opacity" values="0;0;0;0;0;0;1;0;0" dur="4.4s" repeatCount="indefinite" calcMode="discrete"/></text>
<text class="globe" y="118" opacity="0"><tspan x="430" dy="0">                                                    </tspan><tspan x="430" dy="11">                          *                         </tspan><tspan x="430" dy="11">                 %%%%%%%·········*·+                </tspan><tspan x="430" dy="11">             %·@@@@@·········%%####**++=            </tspan><tspan x="430" dy="11">          %@··········@@@@@%%%%%####***++=-         </tspan><tspan x="430" dy="11">        ········@@···@@@@@@%%%%%%####***++==-       </tspan><tspan x="430" dy="11">      ········@@@@@··@@@@@@%%%%%%####***+++==-:     </tspan><tspan x="430" dy="11">     ········@@@@@@@@@@@@@@%%%%%#####***+++==--:    </tspan><tspan x="430" dy="11">    ········@@@@@@@@@@@@@@%%%%%%####****+++==--::   </tspan><tspan x="430" dy="11">   ·····@@@@@@@@@··@··@@@%%%%%%#####***++++==--::   </tspan><tspan x="430" dy="11">  ·····@@@@@@@@@@@@··@@%%%%%%%#####****+++===--:::  </tspan><tspan x="430" dy="11">  ···%%%@@@@@@@@@@@@%%%%%%%%######*·**+++===---:::: </tspan><tspan x="430" dy="11">  ···%%%%%%%%%%%%%%%%%%%%%######**··*+++===- -::::: </tspan><tspan x="430" dy="11"> ···#%%%%%%%%%%%%%%%%%%#######***·····+===-- :::::::</tspan><tspan x="430" dy="11">  ···###%%%%%%%%%%%#######··············=-   :::::: </tspan><tspan x="430" dy="11">  ····###################****···········       :::: </tspan><tspan x="430" dy="11">  ····**#############********++·······         :::: </tspan><tspan x="430" dy="11">   ····******************++++·······             :  </tspan><tspan x="430" dy="11">    ····++**********++++++········              :   </tspan><tspan x="430" dy="11">     ···++++++++++++++++==····                 :    </tspan><tspan x="430" dy="11">        ·===============··                   ::     </tspan><tspan x="430" dy="11">          -----===--      --:                       </tspan><tspan x="430" dy="11">            :::----                                 </tspan><tspan x="430" dy="11">                                                    </tspan><tspan x="430" dy="11">                                                    </tspan><tspan x="430" dy="11">                                                    </tspan>
<animate attributeName="opacity" values="0;0;0;0;0;0;0;1;0" dur="4.4s" repeatCount="indefinite" calcMode="discrete"/></text>

<text class="name" x="430" y="452" text-anchor="middle">Pierre</text>
<text class="role" x="430" y="478" text-anchor="middle">AI Product Engineer · Founder &amp; CTO, Afryx — London, UK</text>
<text class="tag" x="430" y="512" text-anchor="middle" opacity="0">I take AI products from idea to production.<animate attributeName="opacity" values="1;0;0;0;1" dur="16s" repeatCount="indefinite" calcMode="discrete"/></text>
<text class="tag" x="430" y="512" text-anchor="middle" opacity="0">Deep in the stack, close to the user.<animate attributeName="opacity" values="0;1;0;0;0" dur="16s" repeatCount="indefinite" calcMode="discrete"/></text>
<text class="tag" x="430" y="512" text-anchor="middle" opacity="0">Fewer things, done properly.<animate attributeName="opacity" values="0;0;1;0;0" dur="16s" repeatCount="indefinite" calcMode="discrete"/></text>
<text class="tag" x="430" y="512" text-anchor="middle" opacity="0">Building what compounds.<animate attributeName="opacity" values="0;0;0;1;0" dur="16s" repeatCount="indefinite" calcMode="discrete"/></text>

<rect class="cur" x="700" y="500" width="8" height="14"/>
<text class="crumb" x="832" y="542" text-anchor="end">⌘/Ctrl + K</text>
</svg>